<svg width="58" height="47" viewBox="0 0 58 47" fill="none" xmlns="http://www.w3.org/2000/svg">
    <path d="M6.66667 1H52C55.1167 1 57.6667 3.55 57.6667 6.66667V40.6667C57.6667 43.7833 55.1167 46.3333 52 46.3333H6.66667C3.55 46.3333 1 43.7833 1 40.6667V6.66667C1 3.55 3.55 1 6.66667 1Z" fill="white" stroke="black" stroke-width="0.5"
        stroke-linecap="round" stroke-linejoin="round" />
    <path d="M57.6667 6.66675L29.3333 26.5001L1 6.66675" fill="white" />
    <path d="M57.6667 6.66675L29.3333 26.5001L1 6.66675" stroke="black" stroke-width="0.5" stroke-linecap="round" stroke-linejoin="round" />
    <g filter="url(#filter0_d_404_15)">
        <circle cx="29.5" cy="23.5" r="14.25" fill="white" stroke="black" stroke-width="0.5" />
        <path
            d="M27.9081 19.0765L27.9081 19.0765C27.1247 18.8792 26.3792 18.927 25.6815 19.2286C25.2958 19.3953 24.93 19.6373 24.5835 19.9508C24.9469 19.0519 25.4464 18.3538 26.0755 17.8462C26.9393 17.1491 28.0734 16.79 29.5 16.79C30.8229 16.79 31.7748 17.0991 32.5246 17.5346C33.2802 17.9735 33.8412 18.5459 34.3834 19.1012L34.3835 19.1012L34.4098 19.1282C35.0533 19.7871 35.6958 20.4449 36.6019 20.6733L36.6019 20.6733C37.3853 20.8707 38.1309 20.8227 38.8285 20.521C39.2142 20.3542 39.58 20.1122 39.9265 19.7986C39.5631 20.6977 39.0636 21.3959 38.4345 21.9036C37.5706 22.6008 36.4365 22.9598 35.01 22.9598C33.6869 22.9598 32.7349 22.6506 31.9853 22.2151C31.2297 21.7762 30.6691 21.2038 30.127 20.6486L30.127 20.6486L30.1007 20.6217C29.4571 19.9627 28.8147 19.305 27.9081 19.0765ZM22.3982 25.7468L22.3981 25.7468C21.6147 25.5492 20.8691 25.597 20.1715 25.8987C19.7857 26.0654 19.42 26.3075 19.0734 26.621C19.4368 25.7219 19.9363 25.0237 20.5655 24.516C21.4293 23.8189 22.5634 23.4598 23.99 23.4598C25.3131 23.4598 26.265 23.769 27.0147 24.2046C27.7702 24.6435 28.3309 25.2161 28.8729 25.7714L28.8731 25.7715L28.9005 25.7996C29.5436 26.4577 30.1859 27.1148 31.0919 27.3431C31.8753 27.5407 32.6208 27.4928 33.3184 27.1912C33.7042 27.0244 34.07 26.7824 34.4165 26.4688C34.0531 27.368 33.5536 28.0661 32.9245 28.5738C32.0606 29.271 30.9265 29.63 29.5 29.63C28.1771 29.63 27.2252 29.3209 26.4754 28.8853C25.7197 28.4463 25.1588 27.8737 24.6165 27.3184L24.6164 27.3183L24.5903 27.2916C23.9466 26.633 23.3043 25.9757 22.3982 25.7468Z"
            fill="#00ACC1" stroke="black" stroke-width="0.5" />
    </g>
    <defs>
        <filter id="filter0_d_404_15" x="11" y="9" width="37" height="37" filterUnits="userSpaceOnUse" color-interpolation-filters="sRGB">
            <feFlood flood-opacity="0" result="BackgroundImageFix" />
            <feColorMatrix in="SourceAlpha" type="matrix" values="0 0 0 0 0 0 0 0 0 0 0 0 0 0 0 0 0 0 127 0" result="hardAlpha" />
            <feOffset dy="4" />
            <feGaussianBlur stdDeviation="2" />
            <feComposite in2="hardAlpha" operator="out" />
            <feColorMatrix type="matrix" values="0 0 0 0 0 0 0 0 0 0 0 0 0 0 0 0 0 0 0.25 0" />
            <feBlend mode="normal" in2="BackgroundImageFix" result="effect1_dropShadow_404_15" />
            <feBlend mode="normal" in="SourceGraphic" in2="effect1_dropShadow_404_15" result="shape" />
        </filter>
    </defs>
</svg>