<svg width="59" height="47" viewBox="0 0 59 47" fill="none" xmlns="http://www.w3.org/2000/svg">
<path d="M6.66667 1H52C55.1167 1 57.6667 3.55 57.6667 6.66667V40.6667C57.6667 43.7833 55.1167 46.3333 52 46.3333H6.66667C3.55 46.3333 1 43.7833 1 40.6667V6.66667C1 3.55 3.55 1 6.66667 1Z" fill="#8892B0" stroke="black" stroke-linecap="round" stroke-linejoin="round"/>
<path d="M57.6667 6.66675L29.3333 26.5001L1 6.66675" fill="#8892B0"/>
<path d="M57.6667 6.66675L29.3333 26.5001L1 6.66675" stroke="black" stroke-linecap="round" stroke-linejoin="round"/>
<circle cx="29.5" cy="23.5" r="14.5" fill="white"/>
<path d="M29.5 16.54C26.5613 16.54 24.7246 18.0222 23.99 20.9864C25.092 19.5043 26.3776 18.9488 27.847 19.319C28.6854 19.5302 29.2846 20.1441 29.9481 20.8233C31.0281 21.9292 32.2784 23.2098 35.01 23.2098C37.9486 23.2098 39.7853 21.7277 40.52 18.763C39.418 20.2451 38.1323 20.8011 36.663 20.4309C35.825 20.2196 35.2258 19.6057 34.5623 18.9265C33.4819 17.8202 32.2311 16.54 29.5 16.54ZM23.99 23.2098C21.0513 23.2098 19.2146 24.6919 18.48 27.6566C19.582 26.1745 20.8676 25.6185 22.337 25.9892C23.175 26.2009 23.7742 26.8143 24.4377 27.4931C25.5181 28.5995 26.7689 29.88 29.5 29.88C32.4386 29.88 34.2753 28.3979 35.01 25.4332C33.908 26.9153 32.6223 27.4713 31.153 27.1007C30.3145 26.8894 29.7153 26.2755 29.0518 25.5968C27.9719 24.4904 26.7216 23.2098 23.99 23.2098Z" fill="#00ACC1"/>
</svg>
